<?xml version="1.0" encoding="UTF-8"?>
<!DOCTYPE svg PUBLIC "-//W3C//DTD SVG 1.1//EN" "http://www.w3.org/Graphics/SVG/1.1/DTD/svg11.dtd">
<!-- Creator: CorelDRAW X6 -->
<svg xmlns="http://www.w3.org/2000/svg" xml:space="preserve" width="20.1245mm" height="20.1243mm" version="1.1" style="shape-rendering:geometricPrecision; text-rendering:geometricPrecision; image-rendering:optimizeQuality; fill-rule:evenodd; clip-rule:evenodd"
viewBox="0 0 249 249"
 xmlns:xlink="http://www.w3.org/1999/xlink">
 <defs>
  <style type="text/css">
   <![CDATA[
    .str1 {stroke:#373435;stroke-width:0.942342;stroke-linejoin:round}
    .str0 {stroke:#373435;stroke-width:3.09167}
    .fil0 {fill:none}
    .fil1 {fill:#373435}
    .fil2 {fill:#373435;fill-rule:nonzero}
   ]]>
  </style>
 </defs>
 <g id="Capa_x0020_1">
  <metadata id="CorelCorpID_0Corel-Layer"/>
  <g id="_257349272">
   <g>
    <path class="fil0 str0" d="M227 129c1,65 -49,118 -111,118 -62,1 -113,-51 -114,-116 -1,-65 49,-118 111,-118"/>
    <path class="fil1 str1" d="M135 121c28,-3 27,-63 11,-69 -10,-16 -43,-20 -55,-9 -32,14 -30,73 4,81l-24 101 87 0 -24 -104 0 0z"/>
    <path class="fil2" d="M164 40l6 -19c14,5 23,9 30,13 -2,-16 -2,-28 -3,-34l19 0c0,9 -1,20 -3,34 9,-5 19,-9 30,-13l6 19c-11,4 -21,6 -32,8 5,5 13,13 22,26l-15 12c-5,-7 -11,-17 -18,-29 -6,13 -12,22 -17,29l-15 -12c10,-13 17,-21 21,-26 -11,-2 -21,-5 -31,-8z"/>
   </g>
   <g>
    <path class="fil0 str0" d="M227 129c1,65 -49,118 -111,118 -62,1 -113,-51 -114,-116 -1,-65 49,-118 111,-118"/>
    <path class="fil1 str1" d="M135 121c28,-3 27,-63 11,-69 -10,-16 -43,-20 -55,-9 -32,14 -30,73 4,81l-24 101 87 0 -24 -104 0 0z"/>
    <path class="fil2" d="M164 40l6 -19c14,5 23,9 30,13 -2,-16 -2,-28 -3,-34l19 0c0,9 -1,20 -3,34 9,-5 19,-9 30,-13l6 19c-11,4 -21,6 -32,8 5,5 13,13 22,26l-15 12c-5,-7 -11,-17 -18,-29 -6,13 -12,22 -17,29l-15 -12c10,-13 17,-21 21,-26 -11,-2 -21,-5 -31,-8z"/>
   </g>
   <path class="fil0 str0" d="M227 129c1,65 -49,118 -111,118 -62,1 -113,-51 -114,-116 -1,-65 49,-118 111,-118"/>
   <path class="fil1 str1" d="M135 121c28,-3 27,-63 11,-69 -10,-16 -43,-20 -55,-9 -32,14 -30,73 4,81l-24 101 87 0 -24 -104 0 0z"/>
   <path class="fil2" d="M164 40l6 -19c14,5 23,9 30,13 -2,-16 -2,-28 -3,-34l19 0c0,9 -1,20 -3,34 9,-5 19,-9 30,-13l6 19c-11,4 -21,6 -32,8 5,5 13,13 22,26l-15 12c-5,-7 -11,-17 -18,-29 -6,13 -12,22 -17,29l-15 -12c10,-13 17,-21 21,-26 -11,-2 -21,-5 -31,-8z"/>
  </g>
 </g>
</svg>
