<?xml version="1.0" encoding="UTF-8"?>
<!DOCTYPE svg PUBLIC "-//W3C//DTD SVG 1.1//EN" "http://www.w3.org/Graphics/SVG/1.1/DTD/svg11.dtd">
<!-- Creator: CorelDRAW X6 -->
<svg xmlns="http://www.w3.org/2000/svg" xml:space="preserve" width="39.0762mm" height="25.0762mm" version="1.1" shape-rendering="geometricPrecision" text-rendering="geometricPrecision" image-rendering="optimizeQuality" fill-rule="evenodd" clip-rule="evenodd"
viewBox="0 0 2027 1301"
 xmlns:xlink="http://www.w3.org/1999/xlink">
 <g id="Capa_x0020_1">
  <metadata id="CorelCorpID_0Corel-Layer"/>
  <rect fill="none" stroke="#373435" stroke-width="3.95246" x="2" y="2" width="2023" height="1297"/>
  <circle fill="none" stroke="#373435" stroke-width="3.95246" cx="1730" cy="914" r="16"/>
  <circle fill="none" stroke="#373435" stroke-width="3.95246" cx="1730" cy="387" r="16"/>
  <circle fill="none" stroke="#373435" stroke-width="3.95246" cx="676" cy="519" r="16"/>
  <circle fill="none" stroke="#373435" stroke-width="3.95246" cx="676" cy="782" r="16"/>
  <polygon fill="#373435" fill-rule="nonzero" points="676,484 676,431 683,431 683,477 709,477 709,484 "/>
  <polygon fill="#373435" fill-rule="nonzero" points="676,874 676,821 683,821 711,862 711,821 718,821 718,874 710,874 683,833 683,874 "/>
  <path fill="#373435" fill-rule="nonzero" d="M1751 348l-20 -52 8 0 14 38c1,3 2,6 3,9 1,-3 2,-6 3,-9l14 -38 7 0 -20 52 -7 0z"/>
  <polygon id="1" fill="#373435" fill-rule="nonzero" points="1797,340 1797,325 1783,325 1783,319 1797,319 1797,305 1803,305 1803,319 1817,319 1817,325 1803,325 1803,340 "/>
  <path fill="#373435" fill-rule="nonzero" d="M1757 861l0 -6 22 0 0 19c-3,3 -7,5 -11,6 -4,1 -7,2 -11,2 -5,0 -10,-1 -14,-3 -4,-2 -7,-5 -10,-10 -2,-4 -3,-9 -3,-14 0,-5 1,-10 3,-14 2,-4 5,-8 9,-10 4,-2 9,-3 14,-3 4,0 7,1 10,2 3,1 5,3 7,5 2,2 3,5 4,9l-6 2c-1,-3 -2,-5 -3,-6 -1,-2 -3,-3 -5,-4 -2,-1 -5,-1 -7,-1 -3,0 -6,0 -8,1 -2,1 -4,2 -6,4 -1,2 -3,3 -3,5 -1,3 -2,7 -2,11 0,5 1,9 2,12 2,3 4,5 7,7 3,2 6,2 10,2 3,0 6,-1 9,-2 3,-1 5,-2 6,-4l0 -10 -15 0z"/>
  <polygon id="1" fill="#373435" fill-rule="nonzero" points="1791,882 1791,829 1799,829 1826,871 1826,829 1833,829 1833,882 1826,882 1798,841 1798,882 "/>
  <path id="2" fill="#373435" fill-rule="nonzero" d="M1847 882l0 -52 18 0c4,0 7,0 9,1 3,1 6,2 8,4 3,2 5,5 6,9 1,4 2,8 2,12 0,4 0,8 -1,11 -1,3 -2,6 -4,8 -1,2 -3,4 -5,5 -2,1 -4,2 -6,3 -2,1 -5,1 -8,1l-19 0zm7 -6l11 0c3,0 6,0 8,-1 2,-1 4,-2 5,-3 2,-2 3,-4 4,-7 1,-3 1,-6 1,-10 0,-5 -1,-10 -3,-13 -2,-3 -4,-5 -7,-6 -2,-1 -5,-1 -9,-1l-11 0 0 40z"/>
 </g>
</svg>
