<?xml version="1.0" encoding="UTF-8"?>
<!DOCTYPE svg PUBLIC "-//W3C//DTD SVG 1.1//EN" "http://www.w3.org/Graphics/SVG/1.1/DTD/svg11.dtd">
<!-- Creator: CorelDRAW X6 -->
<svg xmlns="http://www.w3.org/2000/svg" xml:space="preserve" width="39.0762mm" height="25.0762mm" version="1.1" shape-rendering="geometricPrecision" text-rendering="geometricPrecision" image-rendering="optimizeQuality" fill-rule="evenodd" clip-rule="evenodd"
viewBox="0 0 2027 1301"
 xmlns:xlink="http://www.w3.org/1999/xlink">
 <g id="Capa_x0020_1">
  <metadata id="CorelCorpID_0Corel-Layer"/>
  <rect fill="#373435" stroke="#FEFEFE" stroke-width="3.95246" x="2" y="2" width="2023" height="1297" rx="62" ry="62"/>
  <circle fill="#00A859" stroke="#FEFEFE" stroke-width="3.95246" cx="1730" cy="914" r="16"/>
  <circle fill="#00A859" stroke="#FEFEFE" stroke-width="3.95246" cx="1730" cy="387" r="16"/>
  <circle fill="#00A859" stroke="#FEFEFE" stroke-width="3.95246" cx="676" cy="519" r="16"/>
  <circle fill="#00A859" stroke="#FEFEFE" stroke-width="3.95246" cx="676" cy="782" r="16"/>
  <g id="_306625616">
   <path fill="#FEFEFE" fill-rule="nonzero" d="M555 980l0 -66 9 0 0 66 -9 0z"/>
   <path id="1" fill="#FEFEFE" fill-rule="nonzero" d="M589 980l0 -66 9 0 34 51 0 -51 8 0 0 66 -9 0 -34 -51 0 51 -8 0z"/>
   <path id="2" fill="#FEFEFE" fill-rule="nonzero" d="M665 980l0 -66 25 0c4,0 8,0 10,1 3,1 6,2 8,3 2,2 4,4 5,6 1,3 2,6 2,9 0,6 -2,10 -5,14 -4,4 -10,6 -19,6l-17 0 0 27 -9 0zm9 -34l17 0c6,0 10,-1 12,-3 2,-2 4,-5 4,-9 0,-3 -1,-5 -2,-7 -1,-2 -3,-3 -5,-4 -1,0 -4,-1 -8,-1l-17 0 0 23z"/>
   <path id="3" fill="#FEFEFE" fill-rule="nonzero" d="M780 915l9 0 0 38c0,7 -1,12 -2,16 -1,4 -4,7 -8,9 -4,2 -9,4 -15,4 -6,0 -11,-1 -15,-3 -4,-2 -7,-5 -8,-9 -2,-4 -3,-9 -3,-16l0 -38 9 0 0 38c0,6 1,10 2,13 1,3 3,5 5,6 3,1 6,2 9,2 6,0 11,-1 14,-4 3,-3 4,-8 4,-17l0 -38z"/>
   <path id="4" fill="#FEFEFE" fill-rule="nonzero" d="M830 980l0 -58 -22 0 0 -8 52 0 0 8 -22 0 0 58 -9 0z"/>
   <path id="5" fill="#FEFEFE" fill-rule="nonzero" d="M869 942l0 -9 9 0 0 9 -9 0zm0 38l0 -9 9 0 0 9 -9 0z"/>
   <path id="6" fill="#FEFEFE" fill-rule="nonzero" d="M928 980l-8 0 0 -51c-2,2 -4,4 -8,6 -3,2 -6,3 -8,4l0 -8c4,-2 8,-5 12,-8 3,-3 6,-6 7,-9l5 0 0 66z"/>
   <path id="7" fill="#FEFEFE" fill-rule="nonzero" d="M956 948c0,-8 1,-14 2,-19 2,-5 4,-8 7,-11 3,-3 7,-4 12,-4 4,0 7,1 9,2 3,1 5,3 7,6 2,3 3,6 4,10 1,4 1,9 1,15 0,8 -1,14 -2,19 -2,5 -4,8 -7,11 -3,3 -7,4 -12,4 -6,0 -11,-2 -15,-7 -4,-5 -6,-14 -6,-27zm8 0c0,11 1,18 4,21 3,4 6,5 9,5 4,0 7,-2 9,-5 3,-4 4,-11 4,-21 0,-11 -1,-18 -4,-21 -3,-4 -6,-5 -9,-5 -4,0 -7,2 -9,5 -3,4 -4,11 -4,22z"/>
   <path id="8" fill="#FEFEFE" fill-rule="nonzero" d="M1014 948c0,-8 1,-14 2,-19 2,-5 4,-8 7,-11 3,-3 7,-4 12,-4 4,0 7,1 9,2 3,1 5,3 7,6 2,3 3,6 4,10 1,4 1,9 1,15 0,8 -1,14 -2,19 -2,5 -4,8 -7,11 -3,3 -7,4 -12,4 -6,0 -11,-2 -15,-7 -4,-5 -6,-14 -6,-27zm8 0c0,11 1,18 4,21 3,4 6,5 9,5 4,0 7,-2 9,-5 3,-4 4,-11 4,-21 0,-11 -1,-18 -4,-21 -3,-4 -6,-5 -9,-5 -4,0 -7,2 -9,5 -3,4 -4,11 -4,22z"/>
   <path id="9" fill="#FEFEFE" fill-rule="nonzero" d="M1071 961l0 -8 25 0 0 8 -25 0z"/>
   <path id="10" fill="#FEFEFE" fill-rule="nonzero" d="M1152 973l0 8 -43 0c0,-2 0,-4 1,-6 1,-3 3,-6 5,-9 2,-3 6,-6 11,-10 7,-6 12,-10 14,-14 3,-3 4,-7 4,-10 0,-3 -1,-6 -3,-8 -2,-2 -5,-3 -9,-3 -4,0 -7,1 -9,3 -2,2 -4,6 -4,10l-8 -1c1,-6 3,-11 6,-14 4,-3 9,-5 15,-5 6,0 11,2 15,5 4,3 6,8 6,13 0,3 -1,5 -2,8 -1,3 -3,5 -5,8 -3,3 -7,7 -12,12 -5,4 -8,7 -9,8 -1,1 -3,3 -3,4l32 0z"/>
   <path id="11" fill="#FEFEFE" fill-rule="nonzero" d="M1193 980l0 -16 -28 0 0 -7 30 -42 7 0 0 42 9 0 0 7 -9 0 0 16 -8 0zm0 -23l0 -29 -21 29 21 0z"/>
   <path id="12" fill="#FEFEFE" fill-rule="nonzero" d="M1226 948c0,-8 1,-14 2,-19 2,-5 4,-8 7,-11 3,-3 7,-4 12,-4 4,0 7,1 9,2 3,1 5,3 7,6 2,3 3,6 4,10 1,4 1,9 1,15 0,8 -1,14 -2,19 -2,5 -4,8 -7,11 -3,3 -7,4 -12,4 -6,0 -11,-2 -15,-7 -4,-5 -6,-14 -6,-27zm8 0c0,11 1,18 4,21 3,4 6,5 9,5 4,0 7,-2 9,-5 3,-4 4,-11 4,-21 0,-11 -1,-18 -4,-21 -3,-4 -6,-5 -9,-5 -4,0 -7,2 -9,5 -3,4 -4,11 -4,22z"/>
   <path id="13" fill="#FEFEFE" fill-rule="nonzero" d="M1307 980l-25 -66 9 0 17 48c1,4 3,7 3,11 1,-4 2,-7 4,-11l18 -48 9 0 -26 66 -9 0z"/>
   <path id="14" fill="#FEFEFE" fill-rule="nonzero" d="M1346 980l25 -66 10 0 27 66 -10 0 -8 -20 -28 0 -7 20 -9 0zm19 -27l22 0 -7 -18c-2,-6 -4,-10 -5,-14 -1,4 -2,8 -4,13l-7 19z"/>
   <path id="15" fill="#FEFEFE" fill-rule="nonzero" d="M1471 957l9 2c-2,7 -5,13 -10,16 -5,4 -10,6 -17,6 -7,0 -13,-1 -17,-4 -4,-3 -8,-7 -10,-12 -2,-5 -3,-11 -3,-18 0,-7 1,-13 4,-18 3,-5 6,-9 11,-12 5,-3 10,-4 16,-4 7,0 12,2 17,5 4,3 8,8 9,14l-9 2c-2,-5 -4,-8 -7,-10 -3,-2 -7,-3 -11,-3 -5,0 -9,1 -13,4 -3,2 -6,6 -7,10 -1,4 -2,8 -2,13 0,6 1,10 2,15 2,4 4,7 8,9 3,2 7,3 11,3 5,0 9,-1 12,-4 3,-3 6,-7 7,-12z"/>
   <path id="16" fill="none" fill-rule="nonzero" stroke="#FEFEFE" stroke-width="3.95246" d="M555 980l0 -66 9 0 0 66 -9 0z"/>
   <path id="17" fill="none" fill-rule="nonzero" stroke="#FEFEFE" stroke-width="3.95246" d="M589 980l0 -66 9 0 34 51 0 -51 8 0 0 66 -9 0 -34 -51 0 51 -8 0z"/>
   <path id="18" fill="none" fill-rule="nonzero" stroke="#FEFEFE" stroke-width="3.95246" d="M665 980l0 -66 25 0c4,0 8,0 10,1 3,1 6,2 8,3 2,2 4,4 5,6 1,3 2,6 2,9 0,6 -2,10 -5,14 -4,4 -10,6 -19,6l-17 0 0 27 -9 0zm9 -34l17 0c6,0 10,-1 12,-3 2,-2 4,-5 4,-9 0,-3 -1,-5 -2,-7 -1,-2 -3,-3 -5,-4 -1,0 -4,-1 -8,-1l-17 0 0 23z"/>
   <path id="19" fill="none" fill-rule="nonzero" stroke="#FEFEFE" stroke-width="3.95246" d="M780 915l9 0 0 38c0,7 -1,12 -2,16 -1,4 -4,7 -8,9 -4,2 -9,4 -15,4 -6,0 -11,-1 -15,-3 -4,-2 -7,-5 -8,-9 -2,-4 -3,-9 -3,-16l0 -38 9 0 0 38c0,6 1,10 2,13 1,3 3,5 5,6 3,1 6,2 9,2 6,0 11,-1 14,-4 3,-3 4,-8 4,-17l0 -38z"/>
   <path id="20" fill="none" fill-rule="nonzero" stroke="#FEFEFE" stroke-width="3.95246" d="M830 980l0 -58 -22 0 0 -8 52 0 0 8 -22 0 0 58 -9 0z"/>
   <path id="21" fill="none" fill-rule="nonzero" stroke="#FEFEFE" stroke-width="3.95246" d="M869 942l0 -9 9 0 0 9 -9 0zm0 38l0 -9 9 0 0 9 -9 0z"/>
   <path id="22" fill="none" fill-rule="nonzero" stroke="#FEFEFE" stroke-width="3.95246" d="M928 980l-8 0 0 -51c-2,2 -4,4 -8,6 -3,2 -6,3 -8,4l0 -8c4,-2 8,-5 12,-8 3,-3 6,-6 7,-9l5 0 0 66z"/>
   <path id="23" fill="none" fill-rule="nonzero" stroke="#FEFEFE" stroke-width="3.95246" d="M956 948c0,-8 1,-14 2,-19 2,-5 4,-8 7,-11 3,-3 7,-4 12,-4 4,0 7,1 9,2 3,1 5,3 7,6 2,3 3,6 4,10 1,4 1,9 1,15 0,8 -1,14 -2,19 -2,5 -4,8 -7,11 -3,3 -7,4 -12,4 -6,0 -11,-2 -15,-7 -4,-5 -6,-14 -6,-27zm8 0c0,11 1,18 4,21 3,4 6,5 9,5 4,0 7,-2 9,-5 3,-4 4,-11 4,-21 0,-11 -1,-18 -4,-21 -3,-4 -6,-5 -9,-5 -4,0 -7,2 -9,5 -3,4 -4,11 -4,22z"/>
   <path id="24" fill="none" fill-rule="nonzero" stroke="#FEFEFE" stroke-width="3.95246" d="M1014 948c0,-8 1,-14 2,-19 2,-5 4,-8 7,-11 3,-3 7,-4 12,-4 4,0 7,1 9,2 3,1 5,3 7,6 2,3 3,6 4,10 1,4 1,9 1,15 0,8 -1,14 -2,19 -2,5 -4,8 -7,11 -3,3 -7,4 -12,4 -6,0 -11,-2 -15,-7 -4,-5 -6,-14 -6,-27zm8 0c0,11 1,18 4,21 3,4 6,5 9,5 4,0 7,-2 9,-5 3,-4 4,-11 4,-21 0,-11 -1,-18 -4,-21 -3,-4 -6,-5 -9,-5 -4,0 -7,2 -9,5 -3,4 -4,11 -4,22z"/>
   <path id="25" fill="none" fill-rule="nonzero" stroke="#FEFEFE" stroke-width="3.95246" d="M1071 961l0 -8 25 0 0 8 -25 0z"/>
   <path id="26" fill="none" fill-rule="nonzero" stroke="#FEFEFE" stroke-width="3.95246" d="M1152 973l0 8 -43 0c0,-2 0,-4 1,-6 1,-3 3,-6 5,-9 2,-3 6,-6 11,-10 7,-6 12,-10 14,-14 3,-3 4,-7 4,-10 0,-3 -1,-6 -3,-8 -2,-2 -5,-3 -9,-3 -4,0 -7,1 -9,3 -2,2 -4,6 -4,10l-8 -1c1,-6 3,-11 6,-14 4,-3 9,-5 15,-5 6,0 11,2 15,5 4,3 6,8 6,13 0,3 -1,5 -2,8 -1,3 -3,5 -5,8 -3,3 -7,7 -12,12 -5,4 -8,7 -9,8 -1,1 -3,3 -3,4l32 0z"/>
   <path id="27" fill="none" fill-rule="nonzero" stroke="#FEFEFE" stroke-width="3.95246" d="M1193 980l0 -16 -28 0 0 -7 30 -42 7 0 0 42 9 0 0 7 -9 0 0 16 -8 0zm0 -23l0 -29 -21 29 21 0z"/>
   <path id="28" fill="none" fill-rule="nonzero" stroke="#FEFEFE" stroke-width="3.95246" d="M1226 948c0,-8 1,-14 2,-19 2,-5 4,-8 7,-11 3,-3 7,-4 12,-4 4,0 7,1 9,2 3,1 5,3 7,6 2,3 3,6 4,10 1,4 1,9 1,15 0,8 -1,14 -2,19 -2,5 -4,8 -7,11 -3,3 -7,4 -12,4 -6,0 -11,-2 -15,-7 -4,-5 -6,-14 -6,-27zm8 0c0,11 1,18 4,21 3,4 6,5 9,5 4,0 7,-2 9,-5 3,-4 4,-11 4,-21 0,-11 -1,-18 -4,-21 -3,-4 -6,-5 -9,-5 -4,0 -7,2 -9,5 -3,4 -4,11 -4,22z"/>
   <path id="29" fill="none" fill-rule="nonzero" stroke="#FEFEFE" stroke-width="3.95246" d="M1307 980l-25 -66 9 0 17 48c1,4 3,7 3,11 1,-4 2,-7 4,-11l18 -48 9 0 -26 66 -9 0z"/>
   <path id="30" fill="none" fill-rule="nonzero" stroke="#FEFEFE" stroke-width="3.95246" d="M1346 980l25 -66 10 0 27 66 -10 0 -8 -20 -28 0 -7 20 -9 0zm19 -27l22 0 -7 -18c-2,-6 -4,-10 -5,-14 -1,4 -2,8 -4,13l-7 19z"/>
   <path id="31" fill="none" fill-rule="nonzero" stroke="#FEFEFE" stroke-width="3.95246" d="M1471 957l9 2c-2,7 -5,13 -10,16 -5,4 -10,6 -17,6 -7,0 -13,-1 -17,-4 -4,-3 -8,-7 -10,-12 -2,-5 -3,-11 -3,-18 0,-7 1,-13 4,-18 3,-5 6,-9 11,-12 5,-3 10,-4 16,-4 7,0 12,2 17,5 4,3 8,8 9,14l-9 2c-2,-5 -4,-8 -7,-10 -3,-2 -7,-3 -11,-3 -5,0 -9,1 -13,4 -3,2 -6,6 -7,10 -1,4 -2,8 -2,13 0,6 1,10 2,15 2,4 4,7 8,9 3,2 7,3 11,3 5,0 9,-1 12,-4 3,-3 6,-7 7,-12z"/>
   <path fill="#FEFEFE" fill-rule="nonzero" d="M906 1078l8 -1c1,4 2,7 4,9 2,2 5,3 8,3 4,0 7,-1 10,-4 3,-3 4,-7 4,-12 0,-5 -1,-8 -4,-11 -3,-3 -6,-4 -10,-4 -3,0 -5,1 -7,2 -2,1 -4,3 -5,5l-8 -1 6 -34 32 0 0 8 -26 0 -3 18c4,-3 8,-4 12,-4 6,0 11,2 14,6 4,4 6,9 6,15 0,6 -2,11 -5,15 -4,5 -10,8 -17,8 -6,0 -11,-2 -15,-5 -4,-3 -6,-8 -6,-13z"/>
   <path id="1" fill="#FEFEFE" fill-rule="nonzero" d="M969 1063c0,-8 1,-14 2,-19 2,-5 4,-8 7,-11 3,-3 7,-4 12,-4 4,0 7,1 9,2 3,1 5,3 7,6 2,3 3,6 4,10 1,4 1,9 1,15 0,8 -1,14 -2,19 -2,5 -4,8 -7,11 -3,3 -7,4 -12,4 -6,0 -11,-2 -15,-7 -4,-5 -6,-14 -6,-27zm8 0c0,11 1,18 4,21 3,4 6,5 9,5 4,0 7,-2 9,-5 3,-4 4,-11 4,-21 0,-11 -1,-18 -4,-21 -3,-4 -6,-5 -9,-5 -4,0 -7,2 -9,5 -3,4 -4,11 -4,22z"/>
   <path id="2" fill="#FEFEFE" fill-rule="nonzero" d="M1031 1075l0 -8 25 0 0 8 -25 0z"/>
   <path id="3" fill="#FEFEFE" fill-rule="nonzero" d="M1116 1045l-8 1c-1,-3 -2,-5 -3,-7 -2,-2 -5,-3 -8,-3 -3,0 -5,1 -7,2 -3,2 -5,5 -6,8 -1,4 -2,9 -2,15 2,-3 4,-5 7,-7 3,-1 6,-2 9,-2 5,0 10,2 14,6 4,4 6,9 6,15 0,4 -1,8 -3,11 -2,4 -4,6 -7,8 -3,2 -7,3 -11,3 -7,0 -12,-2 -16,-7 -4,-5 -6,-13 -6,-24 0,-13 2,-22 7,-28 4,-5 10,-8 17,-8 5,0 9,1 13,4 3,3 5,7 6,12zm-33 28c0,3 1,5 2,8 1,3 3,4 5,6 2,1 4,2 7,2 3,0 6,-1 9,-4 2,-3 4,-6 4,-11 0,-5 -1,-8 -4,-11 -2,-3 -5,-4 -9,-4 -4,0 -7,1 -9,4 -3,3 -4,6 -4,10z"/>
   <path id="4" fill="#FEFEFE" fill-rule="nonzero" d="M1137 1063c0,-8 1,-14 2,-19 2,-5 4,-8 7,-11 3,-3 7,-4 12,-4 4,0 7,1 9,2 3,1 5,3 7,6 2,3 3,6 4,10 1,4 1,9 1,15 0,8 -1,14 -2,19 -2,5 -4,8 -7,11 -3,3 -7,4 -12,4 -6,0 -11,-2 -15,-7 -4,-5 -6,-14 -6,-27zm8 0c0,11 1,18 4,21 3,4 6,5 9,5 4,0 7,-2 9,-5 3,-4 4,-11 4,-21 0,-11 -1,-18 -4,-21 -3,-4 -6,-5 -9,-5 -4,0 -7,2 -9,5 -3,4 -4,11 -4,22z"/>
   <path id="5" fill="#FEFEFE" fill-rule="nonzero" d="M1204 1095l0 -66 9 0 0 27 34 0 0 -27 9 0 0 66 -9 0 0 -31 -34 0 0 31 -9 0z"/>
   <path id="6" fill="#FEFEFE" fill-rule="nonzero" d="M1276 1095l0 -7 30 -35c-3,0 -6,0 -9,0l-19 0 0 -6 39 0 0 5 -26 30 -5 6c4,0 7,0 10,0l22 0 0 7 -42 0z"/>
   <path id="7" fill="none" fill-rule="nonzero" stroke="#FEFEFE" stroke-width="3.95246" d="M906 1078l8 -1c1,4 2,7 4,9 2,2 5,3 8,3 4,0 7,-1 10,-4 3,-3 4,-7 4,-12 0,-5 -1,-8 -4,-11 -3,-3 -6,-4 -10,-4 -3,0 -5,1 -7,2 -2,1 -4,3 -5,5l-8 -1 6 -34 32 0 0 8 -26 0 -3 18c4,-3 8,-4 12,-4 6,0 11,2 14,6 4,4 6,9 6,15 0,6 -2,11 -5,15 -4,5 -10,8 -17,8 -6,0 -11,-2 -15,-5 -4,-3 -6,-8 -6,-13z"/>
   <path id="8" fill="none" fill-rule="nonzero" stroke="#FEFEFE" stroke-width="3.95246" d="M969 1063c0,-8 1,-14 2,-19 2,-5 4,-8 7,-11 3,-3 7,-4 12,-4 4,0 7,1 9,2 3,1 5,3 7,6 2,3 3,6 4,10 1,4 1,9 1,15 0,8 -1,14 -2,19 -2,5 -4,8 -7,11 -3,3 -7,4 -12,4 -6,0 -11,-2 -15,-7 -4,-5 -6,-14 -6,-27zm8 0c0,11 1,18 4,21 3,4 6,5 9,5 4,0 7,-2 9,-5 3,-4 4,-11 4,-21 0,-11 -1,-18 -4,-21 -3,-4 -6,-5 -9,-5 -4,0 -7,2 -9,5 -3,4 -4,11 -4,22z"/>
   <path id="9" fill="none" fill-rule="nonzero" stroke="#FEFEFE" stroke-width="3.95246" d="M1031 1075l0 -8 25 0 0 8 -25 0z"/>
   <path id="10" fill="none" fill-rule="nonzero" stroke="#FEFEFE" stroke-width="3.95246" d="M1116 1045l-8 1c-1,-3 -2,-5 -3,-7 -2,-2 -5,-3 -8,-3 -3,0 -5,1 -7,2 -3,2 -5,5 -6,8 -1,4 -2,9 -2,15 2,-3 4,-5 7,-7 3,-1 6,-2 9,-2 5,0 10,2 14,6 4,4 6,9 6,15 0,4 -1,8 -3,11 -2,4 -4,6 -7,8 -3,2 -7,3 -11,3 -7,0 -12,-2 -16,-7 -4,-5 -6,-13 -6,-24 0,-13 2,-22 7,-28 4,-5 10,-8 17,-8 5,0 9,1 13,4 3,3 5,7 6,12zm-33 28c0,3 1,5 2,8 1,3 3,4 5,6 2,1 4,2 7,2 3,0 6,-1 9,-4 2,-3 4,-6 4,-11 0,-5 -1,-8 -4,-11 -2,-3 -5,-4 -9,-4 -4,0 -7,1 -9,4 -3,3 -4,6 -4,10z"/>
   <path id="11" fill="none" fill-rule="nonzero" stroke="#FEFEFE" stroke-width="3.95246" d="M1137 1063c0,-8 1,-14 2,-19 2,-5 4,-8 7,-11 3,-3 7,-4 12,-4 4,0 7,1 9,2 3,1 5,3 7,6 2,3 3,6 4,10 1,4 1,9 1,15 0,8 -1,14 -2,19 -2,5 -4,8 -7,11 -3,3 -7,4 -12,4 -6,0 -11,-2 -15,-7 -4,-5 -6,-14 -6,-27zm8 0c0,11 1,18 4,21 3,4 6,5 9,5 4,0 7,-2 9,-5 3,-4 4,-11 4,-21 0,-11 -1,-18 -4,-21 -3,-4 -6,-5 -9,-5 -4,0 -7,2 -9,5 -3,4 -4,11 -4,22z"/>
   <path id="12" fill="none" fill-rule="nonzero" stroke="#FEFEFE" stroke-width="3.95246" d="M1204 1095l0 -66 9 0 0 27 34 0 0 -27 9 0 0 66 -9 0 0 -31 -34 0 0 31 -9 0z"/>
   <path id="13" fill="none" fill-rule="nonzero" stroke="#FEFEFE" stroke-width="3.95246" d="M1276 1095l0 -7 30 -35c-3,0 -6,0 -9,0l-19 0 0 -6 39 0 0 5 -26 30 -5 6c4,0 7,0 10,0l22 0 0 7 -42 0z"/>
   <path fill="#FEFEFE" fill-rule="nonzero" d="M547 1179c0,-11 3,-19 9,-26 6,-6 13,-9 23,-9 6,0 11,1 16,4 5,3 9,7 11,12 3,5 4,11 4,18 0,7 -1,13 -4,18 -3,5 -6,9 -11,12 -5,3 -10,4 -16,4 -6,0 -12,-1 -17,-4 -5,-3 -9,-7 -11,-12 -3,-5 -4,-11 -4,-16zm9 0c0,8 2,14 6,19 4,5 10,7 16,7 7,0 12,-2 16,-7 4,-5 6,-11 6,-19 0,-5 -1,-10 -3,-14 -2,-4 -4,-7 -8,-9 -3,-2 -7,-3 -12,-3 -6,0 -11,2 -16,6 -4,4 -7,11 -7,21z"/>
   <path id="1" fill="#FEFEFE" fill-rule="nonzero" d="M673 1146l9 0 0 38c0,7 -1,12 -2,16 -1,4 -4,7 -8,9 -4,2 -9,4 -15,4 -6,0 -11,-1 -15,-3 -4,-2 -7,-5 -8,-9 -2,-4 -3,-9 -3,-16l0 -38 9 0 0 38c0,6 1,10 2,13 1,3 3,5 5,6 3,1 6,2 9,2 6,0 11,-1 14,-4 3,-3 4,-8 4,-17l0 -38z"/>
   <path id="2" fill="#FEFEFE" fill-rule="nonzero" d="M722 1211l0 -58 -22 0 0 -8 52 0 0 8 -22 0 0 58 -9 0z"/>
   <path id="3" fill="#FEFEFE" fill-rule="nonzero" d="M770 1211l0 -66 25 0c4,0 8,0 10,1 3,1 6,2 8,3 2,2 4,4 5,6 1,3 2,6 2,9 0,6 -2,10 -5,14 -4,4 -10,6 -19,6l-17 0 0 27 -9 0zm9 -34l17 0c6,0 10,-1 12,-3 2,-2 4,-5 4,-9 0,-3 -1,-5 -2,-7 -1,-2 -3,-3 -5,-4 -1,0 -4,-1 -8,-1l-17 0 0 23z"/>
   <path id="4" fill="#FEFEFE" fill-rule="nonzero" d="M883 1146l9 0 0 38c0,7 -1,12 -2,16 -1,4 -4,7 -8,9 -4,2 -9,4 -15,4 -6,0 -11,-1 -15,-3 -4,-2 -7,-5 -8,-9 -2,-4 -3,-9 -3,-16l0 -38 9 0 0 38c0,6 1,10 2,13 1,3 3,5 5,6 3,1 6,2 9,2 6,0 11,-1 14,-4 3,-3 4,-8 4,-17l0 -38z"/>
   <path id="5" fill="#FEFEFE" fill-rule="nonzero" d="M932 1211l0 -58 -22 0 0 -8 52 0 0 8 -22 0 0 58 -9 0z"/>
   <path id="6" fill="#FEFEFE" fill-rule="nonzero" d="M970 1173l0 -9 9 0 0 9 -9 0zm0 38l0 -9 9 0 0 9 -9 0z"/>
   <path id="7" fill="#FEFEFE" fill-rule="nonzero" d="M1027 1211l-8 0 0 -51c-2,2 -4,4 -8,6 -3,2 -6,3 -8,4l0 -8c4,-2 8,-5 12,-8 3,-3 6,-6 7,-9l5 0 0 66z"/>
   <path id="8" fill="#FEFEFE" fill-rule="nonzero" d="M1096 1203l0 8 -43 0c0,-2 0,-4 1,-6 1,-3 3,-6 5,-9 2,-3 6,-6 11,-10 7,-6 12,-10 14,-14 3,-3 4,-7 4,-10 0,-3 -1,-6 -3,-8 -2,-2 -5,-3 -9,-3 -4,0 -7,1 -9,3 -2,2 -4,6 -4,10l-8 -1c1,-6 3,-11 6,-14 4,-3 9,-5 15,-5 6,0 11,2 15,5 4,3 6,8 6,13 0,3 -1,5 -2,8 -1,3 -3,5 -5,8 -3,3 -7,7 -12,12 -5,4 -8,7 -9,8 -1,1 -3,3 -3,4l32 0z"/>
   <path id="9" fill="#FEFEFE" fill-rule="nonzero" d="M1132 1211l-25 -66 9 0 17 48c1,4 3,7 3,11 1,-4 2,-7 4,-11l18 -48 9 0 -26 66 -9 0z"/>
   <path id="10" fill="#FEFEFE" fill-rule="nonzero" d="M1174 1212l19 -68 6 0 -19 68 -6 0z"/>
   <path id="11" fill="#FEFEFE" fill-rule="nonzero" d="M1251 1203l0 8 -43 0c0,-2 0,-4 1,-6 1,-3 3,-6 5,-9 2,-3 6,-6 11,-10 7,-6 12,-10 14,-14 3,-3 4,-7 4,-10 0,-3 -1,-6 -3,-8 -2,-2 -5,-3 -9,-3 -4,0 -7,1 -9,3 -2,2 -4,6 -4,10l-8 -1c1,-6 3,-11 6,-14 4,-3 9,-5 15,-5 6,0 11,2 15,5 4,3 6,8 6,13 0,3 -1,5 -2,8 -1,3 -3,5 -5,8 -3,3 -7,7 -12,12 -5,4 -8,7 -9,8 -1,1 -3,3 -3,4l32 0z"/>
   <path id="12" fill="#FEFEFE" fill-rule="nonzero" d="M1291 1211l0 -16 -28 0 0 -7 30 -42 7 0 0 42 9 0 0 7 -9 0 0 16 -8 0zm0 -23l0 -29 -21 29 21 0z"/>
   <path id="13" fill="#FEFEFE" fill-rule="nonzero" d="M1337 1211l-17 -66 9 0 10 43c1,4 2,9 3,13 2,-7 3,-11 3,-12l12 -44 10 0 9 33c2,8 4,16 5,23 1,-4 2,-9 3,-14l10 -42 9 0 -18 66 -8 0 -14 -50c-1,-4 -2,-7 -2,-8 -1,3 -1,6 -2,8l-14 50 -9 0z"/>
   <path id="14" fill="none" fill-rule="nonzero" stroke="#FEFEFE" stroke-width="3.95246" d="M547 1179c0,-11 3,-19 9,-26 6,-6 13,-9 23,-9 6,0 11,1 16,4 5,3 9,7 11,12 3,5 4,11 4,18 0,7 -1,13 -4,18 -3,5 -6,9 -11,12 -5,3 -10,4 -16,4 -6,0 -12,-1 -17,-4 -5,-3 -9,-7 -11,-12 -3,-5 -4,-11 -4,-16zm9 0c0,8 2,14 6,19 4,5 10,7 16,7 7,0 12,-2 16,-7 4,-5 6,-11 6,-19 0,-5 -1,-10 -3,-14 -2,-4 -4,-7 -8,-9 -3,-2 -7,-3 -12,-3 -6,0 -11,2 -16,6 -4,4 -7,11 -7,21z"/>
   <path id="15" fill="none" fill-rule="nonzero" stroke="#FEFEFE" stroke-width="3.95246" d="M673 1146l9 0 0 38c0,7 -1,12 -2,16 -1,4 -4,7 -8,9 -4,2 -9,4 -15,4 -6,0 -11,-1 -15,-3 -4,-2 -7,-5 -8,-9 -2,-4 -3,-9 -3,-16l0 -38 9 0 0 38c0,6 1,10 2,13 1,3 3,5 5,6 3,1 6,2 9,2 6,0 11,-1 14,-4 3,-3 4,-8 4,-17l0 -38z"/>
   <path id="16" fill="none" fill-rule="nonzero" stroke="#FEFEFE" stroke-width="3.95246" d="M722 1211l0 -58 -22 0 0 -8 52 0 0 8 -22 0 0 58 -9 0z"/>
   <path id="17" fill="none" fill-rule="nonzero" stroke="#FEFEFE" stroke-width="3.95246" d="M770 1211l0 -66 25 0c4,0 8,0 10,1 3,1 6,2 8,3 2,2 4,4 5,6 1,3 2,6 2,9 0,6 -2,10 -5,14 -4,4 -10,6 -19,6l-17 0 0 27 -9 0zm9 -34l17 0c6,0 10,-1 12,-3 2,-2 4,-5 4,-9 0,-3 -1,-5 -2,-7 -1,-2 -3,-3 -5,-4 -1,0 -4,-1 -8,-1l-17 0 0 23z"/>
   <path id="18" fill="none" fill-rule="nonzero" stroke="#FEFEFE" stroke-width="3.95246" d="M883 1146l9 0 0 38c0,7 -1,12 -2,16 -1,4 -4,7 -8,9 -4,2 -9,4 -15,4 -6,0 -11,-1 -15,-3 -4,-2 -7,-5 -8,-9 -2,-4 -3,-9 -3,-16l0 -38 9 0 0 38c0,6 1,10 2,13 1,3 3,5 5,6 3,1 6,2 9,2 6,0 11,-1 14,-4 3,-3 4,-8 4,-17l0 -38z"/>
   <path id="19" fill="none" fill-rule="nonzero" stroke="#FEFEFE" stroke-width="3.95246" d="M932 1211l0 -58 -22 0 0 -8 52 0 0 8 -22 0 0 58 -9 0z"/>
   <path id="20" fill="none" fill-rule="nonzero" stroke="#FEFEFE" stroke-width="3.95246" d="M970 1173l0 -9 9 0 0 9 -9 0zm0 38l0 -9 9 0 0 9 -9 0z"/>
   <path id="21" fill="none" fill-rule="nonzero" stroke="#FEFEFE" stroke-width="3.95246" d="M1027 1211l-8 0 0 -51c-2,2 -4,4 -8,6 -3,2 -6,3 -8,4l0 -8c4,-2 8,-5 12,-8 3,-3 6,-6 7,-9l5 0 0 66z"/>
   <path id="22" fill="none" fill-rule="nonzero" stroke="#FEFEFE" stroke-width="3.95246" d="M1096 1203l0 8 -43 0c0,-2 0,-4 1,-6 1,-3 3,-6 5,-9 2,-3 6,-6 11,-10 7,-6 12,-10 14,-14 3,-3 4,-7 4,-10 0,-3 -1,-6 -3,-8 -2,-2 -5,-3 -9,-3 -4,0 -7,1 -9,3 -2,2 -4,6 -4,10l-8 -1c1,-6 3,-11 6,-14 4,-3 9,-5 15,-5 6,0 11,2 15,5 4,3 6,8 6,13 0,3 -1,5 -2,8 -1,3 -3,5 -5,8 -3,3 -7,7 -12,12 -5,4 -8,7 -9,8 -1,1 -3,3 -3,4l32 0z"/>
   <path id="23" fill="none" fill-rule="nonzero" stroke="#FEFEFE" stroke-width="3.95246" d="M1132 1211l-25 -66 9 0 17 48c1,4 3,7 3,11 1,-4 2,-7 4,-11l18 -48 9 0 -26 66 -9 0z"/>
   <path id="24" fill="none" fill-rule="nonzero" stroke="#FEFEFE" stroke-width="3.95246" d="M1174 1212l19 -68 6 0 -19 68 -6 0z"/>
   <path id="25" fill="none" fill-rule="nonzero" stroke="#FEFEFE" stroke-width="3.95246" d="M1251 1203l0 8 -43 0c0,-2 0,-4 1,-6 1,-3 3,-6 5,-9 2,-3 6,-6 11,-10 7,-6 12,-10 14,-14 3,-3 4,-7 4,-10 0,-3 -1,-6 -3,-8 -2,-2 -5,-3 -9,-3 -4,0 -7,1 -9,3 -2,2 -4,6 -4,10l-8 -1c1,-6 3,-11 6,-14 4,-3 9,-5 15,-5 6,0 11,2 15,5 4,3 6,8 6,13 0,3 -1,5 -2,8 -1,3 -3,5 -5,8 -3,3 -7,7 -12,12 -5,4 -8,7 -9,8 -1,1 -3,3 -3,4l32 0z"/>
   <path id="26" fill="none" fill-rule="nonzero" stroke="#FEFEFE" stroke-width="3.95246" d="M1291 1211l0 -16 -28 0 0 -7 30 -42 7 0 0 42 9 0 0 7 -9 0 0 16 -8 0zm0 -23l0 -29 -21 29 21 0z"/>
   <path id="27" fill="none" fill-rule="nonzero" stroke="#FEFEFE" stroke-width="3.95246" d="M1337 1211l-17 -66 9 0 10 43c1,4 2,9 3,13 2,-7 3,-11 3,-12l12 -44 10 0 9 33c2,8 4,16 5,23 1,-4 2,-9 3,-14l10 -42 9 0 -18 66 -8 0 -14 -50c-1,-4 -2,-7 -2,-8 -1,3 -1,6 -2,8l-14 50 -9 0z"/>
  </g>
  <g id="_304580200">
   <path fill="#FEFEFE" fill-rule="nonzero" d="M455 211l0 -15 8 0c6,0 9,-1 11,-2 1,-1 2,-5 2,-10l0 -78c0,-5 -1,-9 -2,-10 -1,-1 -5,-2 -11,-2l-8 0 0 -15 71 0 0 15 -9 0c-6,0 -10,1 -11,2 -1,1 -2,5 -2,10l0 29 57 0 0 -29c0,-5 -1,-9 -2,-10 -1,-1 -5,-2 -11,-2l-9 0 0 -15 71 0 0 15 -8 0c-6,0 -10,1 -11,2 -1,1 -2,5 -2,10l0 78c0,5 1,9 2,10 1,1 5,2 11,2l8 0 0 15 -71 0 0 -15 9 0c6,0 9,-1 11,-2 1,-1 2,-5 2,-10l0 -33 -57 0 0 33c0,5 1,9 2,10 1,1 5,2 11,2l9 0 0 15 -71 0z"/>
   <path id="1" fill="#FEFEFE" fill-rule="nonzero" d="M644 211l0 -15 8 0c6,0 9,-1 11,-2 1,-1 2,-5 2,-10l0 -78c0,-5 -1,-9 -2,-10 -1,-1 -5,-2 -11,-2l-8 0 0 -15 71 0 0 15 -8 0c-6,0 -10,1 -11,2 -1,1 -2,5 -2,10l0 78c0,5 1,9 2,10 1,1 5,2 11,2l8 0 0 15 -71 0z"/>
   <path id="2" fill="#FEFEFE" fill-rule="nonzero" d="M750 211l0 -15 8 0c6,0 9,-1 11,-2 1,-1 2,-5 2,-10l0 -78c0,-5 -1,-9 -2,-10 -1,-1 -5,-2 -11,-2l-8 0 0 -15 130 0 0 53 -15 0c0,-15 -3,-25 -7,-30 -5,-5 -14,-8 -28,-8l-32 0 0 41 7 0c8,0 14,-1 16,-4 3,-3 4,-9 5,-20l15 0 0 66 -15 0c-1,-11 -2,-19 -5,-22 -3,-3 -8,-5 -16,-5l-8 0 0 47 35 0c12,0 20,-3 24,-8 4,-5 7,-16 8,-33l15 0 0 56 -130 0z"/>
   <path id="3" fill="#FEFEFE" fill-rule="nonzero" d="M1032 160l17 0c-1,18 -7,31 -16,41 -10,10 -22,14 -39,14 -10,0 -18,-2 -26,-5 -8,-3 -15,-8 -21,-14 -7,-7 -12,-15 -15,-23 -4,-9 -5,-18 -5,-28 0,-10 2,-20 5,-28 3,-9 9,-16 15,-23 6,-6 13,-11 21,-14 8,-3 16,-5 25,-5 7,0 14,1 20,3 6,2 12,6 18,10l4 -12 14 0 0 54 -15 0c-2,-13 -6,-22 -12,-29 -7,-7 -15,-10 -25,-10 -12,0 -22,5 -29,15 -7,10 -10,23 -10,40 0,16 3,29 10,38 7,9 17,13 29,13 10,0 18,-3 24,-9 6,-6 10,-16 12,-28z"/>
   <path id="4" fill="#FEFEFE" fill-rule="nonzero" d="M1107 106c0,-5 -1,-9 -2,-10 -1,-1 -5,-2 -11,-2l-6 0 0 -15 69 0 0 15 -8 0c-6,0 -10,1 -11,2 -1,1 -2,5 -2,10l0 63c0,9 2,16 7,20 4,4 11,6 21,6 9,0 16,-2 21,-7 5,-4 7,-11 7,-20l0 -63c0,-5 -1,-9 -2,-10 -1,-1 -5,-2 -11,-2l-8 0 0 -15 61 0 0 15 -6 0c-6,0 -9,1 -11,2 -1,1 -2,5 -2,10l0 63c0,15 -4,26 -13,34 -9,8 -22,12 -39,12 -17,0 -30,-4 -38,-12 -9,-8 -13,-19 -13,-34l0 -63z"/>
   <path id="5" fill="#FEFEFE" fill-rule="nonzero" d="M1312 135l19 0c11,0 18,-2 23,-5 5,-3 7,-8 7,-16 0,-7 -2,-13 -6,-16 -4,-3 -11,-5 -21,-5l-21 0 0 41zm0 61l22 0c11,0 19,-2 24,-5 5,-4 7,-10 7,-18 0,-8 -3,-14 -7,-18 -5,-4 -14,-5 -26,-5l-20 0 0 46zm-49 15l0 -15 8 0c6,0 9,-1 11,-2 1,-1 2,-5 2,-10l0 -78c0,-5 -1,-9 -2,-10 -1,-1 -5,-2 -11,-2l-8 0 0 -15 76 0c17,0 29,3 37,8 8,5 12,14 12,25 0,8 -2,14 -7,19 -4,5 -11,8 -20,11 11,2 19,6 24,12 5,6 8,13 8,23 0,13 -4,22 -13,28 -9,6 -24,8 -45,8l-73 0z"/>
   <path id="6" fill="#FEFEFE" fill-rule="nonzero" d="M1432 211l0 -15 8 0c6,0 9,-1 11,-2 1,-1 2,-5 2,-10l0 -78c0,-5 -1,-9 -2,-10 -1,-1 -5,-2 -11,-2l-8 0 0 -15 130 0 0 53 -15 0c0,-15 -3,-25 -7,-30 -5,-5 -14,-8 -28,-8l-32 0 0 41 7 0c8,0 14,-1 16,-4 3,-3 4,-9 5,-20l15 0 0 66 -15 0c-1,-11 -2,-19 -5,-22 -3,-3 -8,-5 -16,-5l-8 0 0 47 35 0c12,0 20,-3 24,-8 4,-5 7,-16 8,-33l15 0 0 56 -130 0z"/>
   <path id="7" fill="none" fill-rule="nonzero" stroke="#FEFEFE" stroke-width="3.95246" d="M455 211l0 -15 8 0c6,0 9,-1 11,-2 1,-1 2,-5 2,-10l0 -78c0,-5 -1,-9 -2,-10 -1,-1 -5,-2 -11,-2l-8 0 0 -15 71 0 0 15 -9 0c-6,0 -10,1 -11,2 -1,1 -2,5 -2,10l0 29 57 0 0 -29c0,-5 -1,-9 -2,-10 -1,-1 -5,-2 -11,-2l-9 0 0 -15 71 0 0 15 -8 0c-6,0 -10,1 -11,2 -1,1 -2,5 -2,10l0 78c0,5 1,9 2,10 1,1 5,2 11,2l8 0 0 15 -71 0 0 -15 9 0c6,0 9,-1 11,-2 1,-1 2,-5 2,-10l0 -33 -57 0 0 33c0,5 1,9 2,10 1,1 5,2 11,2l9 0 0 15 -71 0z"/>
   <path id="8" fill="none" fill-rule="nonzero" stroke="#FEFEFE" stroke-width="3.95246" d="M644 211l0 -15 8 0c6,0 9,-1 11,-2 1,-1 2,-5 2,-10l0 -78c0,-5 -1,-9 -2,-10 -1,-1 -5,-2 -11,-2l-8 0 0 -15 71 0 0 15 -8 0c-6,0 -10,1 -11,2 -1,1 -2,5 -2,10l0 78c0,5 1,9 2,10 1,1 5,2 11,2l8 0 0 15 -71 0z"/>
   <path id="9" fill="none" fill-rule="nonzero" stroke="#FEFEFE" stroke-width="3.95246" d="M750 211l0 -15 8 0c6,0 9,-1 11,-2 1,-1 2,-5 2,-10l0 -78c0,-5 -1,-9 -2,-10 -1,-1 -5,-2 -11,-2l-8 0 0 -15 130 0 0 53 -15 0c0,-15 -3,-25 -7,-30 -5,-5 -14,-8 -28,-8l-32 0 0 41 7 0c8,0 14,-1 16,-4 3,-3 4,-9 5,-20l15 0 0 66 -15 0c-1,-11 -2,-19 -5,-22 -3,-3 -8,-5 -16,-5l-8 0 0 47 35 0c12,0 20,-3 24,-8 4,-5 7,-16 8,-33l15 0 0 56 -130 0z"/>
   <path id="10" fill="none" fill-rule="nonzero" stroke="#FEFEFE" stroke-width="3.95246" d="M1032 160l17 0c-1,18 -7,31 -16,41 -10,10 -22,14 -39,14 -10,0 -18,-2 -26,-5 -8,-3 -15,-8 -21,-14 -7,-7 -12,-15 -15,-23 -4,-9 -5,-18 -5,-28 0,-10 2,-20 5,-28 3,-9 9,-16 15,-23 6,-6 13,-11 21,-14 8,-3 16,-5 25,-5 7,0 14,1 20,3 6,2 12,6 18,10l4 -12 14 0 0 54 -15 0c-2,-13 -6,-22 -12,-29 -7,-7 -15,-10 -25,-10 -12,0 -22,5 -29,15 -7,10 -10,23 -10,40 0,16 3,29 10,38 7,9 17,13 29,13 10,0 18,-3 24,-9 6,-6 10,-16 12,-28z"/>
   <path id="11" fill="none" fill-rule="nonzero" stroke="#FEFEFE" stroke-width="3.95246" d="M1107 106c0,-5 -1,-9 -2,-10 -1,-1 -5,-2 -11,-2l-6 0 0 -15 69 0 0 15 -8 0c-6,0 -10,1 -11,2 -1,1 -2,5 -2,10l0 63c0,9 2,16 7,20 4,4 11,6 21,6 9,0 16,-2 21,-7 5,-4 7,-11 7,-20l0 -63c0,-5 -1,-9 -2,-10 -1,-1 -5,-2 -11,-2l-8 0 0 -15 61 0 0 15 -6 0c-6,0 -9,1 -11,2 -1,1 -2,5 -2,10l0 63c0,15 -4,26 -13,34 -9,8 -22,12 -39,12 -17,0 -30,-4 -38,-12 -9,-8 -13,-19 -13,-34l0 -63z"/>
   <path id="12" fill="none" fill-rule="nonzero" stroke="#FEFEFE" stroke-width="3.95246" d="M1312 135l19 0c11,0 18,-2 23,-5 5,-3 7,-8 7,-16 0,-7 -2,-13 -6,-16 -4,-3 -11,-5 -21,-5l-21 0 0 41zm0 61l22 0c11,0 19,-2 24,-5 5,-4 7,-10 7,-18 0,-8 -3,-14 -7,-18 -5,-4 -14,-5 -26,-5l-20 0 0 46zm-49 15l0 -15 8 0c6,0 9,-1 11,-2 1,-1 2,-5 2,-10l0 -78c0,-5 -1,-9 -2,-10 -1,-1 -5,-2 -11,-2l-8 0 0 -15 76 0c17,0 29,3 37,8 8,5 12,14 12,25 0,8 -2,14 -7,19 -4,5 -11,8 -20,11 11,2 19,6 24,12 5,6 8,13 8,23 0,13 -4,22 -13,28 -9,6 -24,8 -45,8l-73 0z"/>
   <path id="13" fill="none" fill-rule="nonzero" stroke="#FEFEFE" stroke-width="3.95246" d="M1432 211l0 -15 8 0c6,0 9,-1 11,-2 1,-1 2,-5 2,-10l0 -78c0,-5 -1,-9 -2,-10 -1,-1 -5,-2 -11,-2l-8 0 0 -15 130 0 0 53 -15 0c0,-15 -3,-25 -7,-30 -5,-5 -14,-8 -28,-8l-32 0 0 41 7 0c8,0 14,-1 16,-4 3,-3 4,-9 5,-20l15 0 0 66 -15 0c-1,-11 -2,-19 -5,-22 -3,-3 -8,-5 -16,-5l-8 0 0 47 35 0c12,0 20,-3 24,-8 4,-5 7,-16 8,-33l15 0 0 56 -130 0z"/>
   <path id="14" fill="#FEFEFE" stroke="#FEFEFE" stroke-width="3.95246" d="M451 229l1125 0 0 9 -1125 0 0 -9z"/>
   <path fill="#FEFEFE" fill-rule="nonzero" d="M481 387l0 -81 11 0 0 33 42 0 0 -33 11 0 0 81 -11 0 0 -38 -42 0 0 38 -11 0z"/>
   <path id="1" fill="#FEFEFE" fill-rule="nonzero" d="M606 387l0 -81 58 0 0 9 -48 0 0 25 44 0 0 9 -44 0 0 27 49 0 0 9 -60 0z"/>
   <path id="2" fill="#FEFEFE" fill-rule="nonzero" d="M756 387l-10 0 0 -63c-2,2 -6,5 -9,7 -4,2 -7,4 -10,5l0 -10c6,-3 10,-6 15,-9 4,-4 7,-7 9,-11l6 0 0 81z"/>
   <path id="3" fill="#FEFEFE" fill-rule="nonzero" d="M873 377l0 9 -53 0c0,-2 0,-5 1,-7 1,-4 4,-7 7,-11 3,-4 7,-8 13,-12 9,-7 15,-13 18,-17 3,-4 5,-8 5,-12 0,-4 -1,-7 -4,-10 -3,-3 -6,-4 -11,-4 -5,0 -9,1 -11,4 -3,3 -4,7 -4,12l-10 -1c1,-8 3,-13 8,-17 5,-4 11,-6 18,-6 8,0 14,2 18,6 5,4 7,10 7,16 0,3 -1,6 -2,10 -1,3 -4,6 -7,10 -3,3 -8,8 -15,14 -6,5 -10,8 -11,10 -2,2 -3,4 -4,5l40 0z"/>
   <path id="4" fill="#FEFEFE" fill-rule="nonzero" d="M928 387l0 -81 30 0c5,0 9,0 12,1 4,1 7,2 10,4 3,2 5,4 6,8 2,3 2,7 2,11 0,7 -2,13 -7,17 -4,5 -12,7 -24,7l-21 0 0 33 -11 0zm11 -42l21 0c7,0 12,-1 15,-4 3,-3 4,-6 4,-11 0,-3 -1,-6 -3,-9 -2,-2 -4,-4 -7,-5 -2,0 -5,-1 -10,-1l-21 0 0 29z"/>
   <path id="5" fill="#FEFEFE" fill-rule="nonzero" d="M1091 377l0 9 -53 0c0,-2 0,-5 1,-7 1,-4 4,-7 7,-11 3,-4 7,-8 13,-12 9,-7 15,-13 18,-17 3,-4 5,-8 5,-12 0,-4 -1,-7 -4,-10 -3,-3 -6,-4 -11,-4 -5,0 -9,1 -11,4 -3,3 -4,7 -4,12l-10 -1c1,-8 3,-13 8,-17 5,-4 11,-6 18,-6 8,0 14,2 18,6 5,4 7,10 7,16 0,3 -1,6 -2,10 -1,3 -4,6 -7,10 -3,3 -8,8 -15,14 -6,5 -10,8 -11,10 -2,2 -3,4 -4,5l40 0z"/>
   <path id="6" fill="#FEFEFE" fill-rule="nonzero" d="M1173 387l0 -19 -35 0 0 -9 37 -52 8 0 0 52 11 0 0 9 -11 0 0 19 -10 0zm0 -28l0 -36 -25 36 25 0z"/>
   <path id="7" fill="#FEFEFE" fill-rule="nonzero" d="M1249 387l0 -81 11 0 0 71 40 0 0 9 -50 0z"/>
   <path id="8" fill="#FEFEFE" fill-rule="nonzero" d="M1357 387l0 -81 36 0c7,0 13,1 16,2 4,1 7,4 9,8 2,4 3,8 3,12 0,6 -2,11 -6,14 -4,4 -9,6 -17,7 3,1 5,3 6,4 3,3 6,6 9,11l14 22 -13 0 -11 -17c-3,-5 -6,-9 -8,-11 -2,-3 -4,-4 -5,-5 -2,-1 -3,-2 -5,-2 -1,0 -3,0 -6,0l-12 0 0 36 -11 0zm11 -45l23 0c5,0 9,-1 11,-2 3,-1 5,-3 6,-5 1,-2 2,-5 2,-7 0,-4 -1,-7 -4,-9 -3,-2 -7,-4 -13,-4l-25 0 0 27z"/>
   <path id="9" fill="#FEFEFE" fill-rule="nonzero" d="M1481 387l0 -81 11 0 42 63 0 -63 10 0 0 81 -11 0 -42 -63 0 63 -10 0z"/>
   <path id="10" fill="none" fill-rule="nonzero" stroke="#FEFEFE" stroke-width="3.95246" d="M481 387l0 -81 11 0 0 33 42 0 0 -33 11 0 0 81 -11 0 0 -38 -42 0 0 38 -11 0z"/>
   <path id="11" fill="none" fill-rule="nonzero" stroke="#FEFEFE" stroke-width="3.95246" d="M606 387l0 -81 58 0 0 9 -48 0 0 25 44 0 0 9 -44 0 0 27 49 0 0 9 -60 0z"/>
   <path id="12" fill="none" fill-rule="nonzero" stroke="#FEFEFE" stroke-width="3.95246" d="M756 387l-10 0 0 -63c-2,2 -6,5 -9,7 -4,2 -7,4 -10,5l0 -10c6,-3 10,-6 15,-9 4,-4 7,-7 9,-11l6 0 0 81z"/>
   <path id="13" fill="none" fill-rule="nonzero" stroke="#FEFEFE" stroke-width="3.95246" d="M873 377l0 9 -53 0c0,-2 0,-5 1,-7 1,-4 4,-7 7,-11 3,-4 7,-8 13,-12 9,-7 15,-13 18,-17 3,-4 5,-8 5,-12 0,-4 -1,-7 -4,-10 -3,-3 -6,-4 -11,-4 -5,0 -9,1 -11,4 -3,3 -4,7 -4,12l-10 -1c1,-8 3,-13 8,-17 5,-4 11,-6 18,-6 8,0 14,2 18,6 5,4 7,10 7,16 0,3 -1,6 -2,10 -1,3 -4,6 -7,10 -3,3 -8,8 -15,14 -6,5 -10,8 -11,10 -2,2 -3,4 -4,5l40 0z"/>
   <path id="14" fill="none" fill-rule="nonzero" stroke="#FEFEFE" stroke-width="3.95246" d="M928 387l0 -81 30 0c5,0 9,0 12,1 4,1 7,2 10,4 3,2 5,4 6,8 2,3 2,7 2,11 0,7 -2,13 -7,17 -4,5 -12,7 -24,7l-21 0 0 33 -11 0zm11 -42l21 0c7,0 12,-1 15,-4 3,-3 4,-6 4,-11 0,-3 -1,-6 -3,-9 -2,-2 -4,-4 -7,-5 -2,0 -5,-1 -10,-1l-21 0 0 29z"/>
   <path id="15" fill="none" fill-rule="nonzero" stroke="#FEFEFE" stroke-width="3.95246" d="M1091 377l0 9 -53 0c0,-2 0,-5 1,-7 1,-4 4,-7 7,-11 3,-4 7,-8 13,-12 9,-7 15,-13 18,-17 3,-4 5,-8 5,-12 0,-4 -1,-7 -4,-10 -3,-3 -6,-4 -11,-4 -5,0 -9,1 -11,4 -3,3 -4,7 -4,12l-10 -1c1,-8 3,-13 8,-17 5,-4 11,-6 18,-6 8,0 14,2 18,6 5,4 7,10 7,16 0,3 -1,6 -2,10 -1,3 -4,6 -7,10 -3,3 -8,8 -15,14 -6,5 -10,8 -11,10 -2,2 -3,4 -4,5l40 0z"/>
   <path id="16" fill="none" fill-rule="nonzero" stroke="#FEFEFE" stroke-width="3.95246" d="M1173 387l0 -19 -35 0 0 -9 37 -52 8 0 0 52 11 0 0 9 -11 0 0 19 -10 0zm0 -28l0 -36 -25 36 25 0z"/>
   <path id="17" fill="none" fill-rule="nonzero" stroke="#FEFEFE" stroke-width="3.95246" d="M1249 387l0 -81 11 0 0 71 40 0 0 9 -50 0z"/>
   <path id="18" fill="none" fill-rule="nonzero" stroke="#FEFEFE" stroke-width="3.95246" d="M1357 387l0 -81 36 0c7,0 13,1 16,2 4,1 7,4 9,8 2,4 3,8 3,12 0,6 -2,11 -6,14 -4,4 -9,6 -17,7 3,1 5,3 6,4 3,3 6,6 9,11l14 22 -13 0 -11 -17c-3,-5 -6,-9 -8,-11 -2,-3 -4,-4 -5,-5 -2,-1 -3,-2 -5,-2 -1,0 -3,0 -6,0l-12 0 0 36 -11 0zm11 -45l23 0c5,0 9,-1 11,-2 3,-1 5,-3 6,-5 1,-2 2,-5 2,-7 0,-4 -1,-7 -4,-9 -3,-2 -7,-4 -13,-4l-25 0 0 27z"/>
   <path id="19" fill="none" fill-rule="nonzero" stroke="#FEFEFE" stroke-width="3.95246" d="M1481 387l0 -81 11 0 42 63 0 -63 10 0 0 81 -11 0 -42 -63 0 63 -10 0z"/>
  </g>
  <path fill="#FEFEFE" fill-rule="nonzero" d="M1775 413l-10 -26 4 0 7 19c1,2 1,3 1,4 0,-1 1,-3 1,-4l7 -19 4 0 -10 26 -4 0z"/>
  <path id="1" fill="#FEFEFE" fill-rule="nonzero" d="M1798 409l0 -7 -7 0 0 -3 7 0 0 -7 3 0 0 7 7 0 0 3 -7 0 0 7 -3 0z"/>
  <path id="2" fill="none" fill-rule="nonzero" stroke="#FEFEFE" stroke-width="3.95246" d="M1775 413l-10 -26 4 0 7 19c1,2 1,3 1,4 0,-1 1,-3 1,-4l7 -19 4 0 -10 26 -4 0z"/>
  <path id="3" fill="none" fill-rule="nonzero" stroke="#FEFEFE" stroke-width="3.95246" d="M1798 409l0 -7 -7 0 0 -3 7 0 0 -7 3 0 0 7 7 0 0 3 -7 0 0 7 -3 0z"/>
  <path fill="#FEFEFE" fill-rule="nonzero" d="M1782 930l0 -3 11 0 0 10c-2,1 -3,2 -5,3 -2,1 -4,1 -6,1 -3,0 -5,-1 -7,-2 -2,-1 -4,-3 -5,-5 -1,-2 -2,-4 -2,-7 0,-3 1,-5 2,-7 1,-2 3,-4 5,-5 2,-1 4,-2 7,-2 2,0 4,0 5,1 2,1 3,1 4,3 1,1 2,3 2,4l-3 1c0,-1 -1,-2 -1,-3 -1,-1 -1,-1 -3,-2 -1,0 -2,-1 -4,-1 -2,0 -3,0 -4,1 -1,0 -2,1 -3,2 -1,1 -1,2 -2,3 -1,2 -1,3 -1,5 0,2 0,4 1,6 1,2 2,3 4,4 2,1 3,1 5,1 2,0 3,0 4,-1 1,-1 3,-1 3,-2l0 -5 -8 0z"/>
  <path id="1" fill="#FEFEFE" fill-rule="nonzero" d="M1799 940l0 -26 4 0 14 21 0 -21 3 0 0 26 -4 0 -14 -21 0 21 -3 0z"/>
  <path id="2" fill="#FEFEFE" fill-rule="nonzero" d="M1827 940l0 -26 9 0c2,0 4,0 5,0 2,0 3,1 4,2 1,1 2,3 3,4 1,2 1,4 1,6 0,2 0,4 -1,5 0,2 -1,3 -2,4 -1,1 -2,2 -2,2 -1,1 -2,1 -3,1 -1,0 -3,0 -4,0l-9 0zm3 -3l6 0c2,0 3,0 4,0 1,0 2,-1 2,-1 1,-1 1,-2 2,-3 0,-1 1,-3 1,-5 0,-3 0,-5 -1,-6 -1,-1 -2,-2 -3,-3 -1,0 -2,-1 -4,-1l-5 0 0 20z"/>
  <path id="3" fill="none" fill-rule="nonzero" stroke="#FEFEFE" stroke-width="3.95246" d="M1782 930l0 -3 11 0 0 10c-2,1 -3,2 -5,3 -2,1 -4,1 -6,1 -3,0 -5,-1 -7,-2 -2,-1 -4,-3 -5,-5 -1,-2 -2,-4 -2,-7 0,-3 1,-5 2,-7 1,-2 3,-4 5,-5 2,-1 4,-2 7,-2 2,0 4,0 5,1 2,1 3,1 4,3 1,1 2,3 2,4l-3 1c0,-1 -1,-2 -1,-3 -1,-1 -1,-1 -3,-2 -1,0 -2,-1 -4,-1 -2,0 -3,0 -4,1 -1,0 -2,1 -3,2 -1,1 -1,2 -2,3 -1,2 -1,3 -1,5 0,2 0,4 1,6 1,2 2,3 4,4 2,1 3,1 5,1 2,0 3,0 4,-1 1,-1 3,-1 3,-2l0 -5 -8 0z"/>
  <path id="4" fill="none" fill-rule="nonzero" stroke="#FEFEFE" stroke-width="3.95246" d="M1799 940l0 -26 4 0 14 21 0 -21 3 0 0 26 -4 0 -14 -21 0 21 -3 0z"/>
  <path id="5" fill="none" fill-rule="nonzero" stroke="#FEFEFE" stroke-width="3.95246" d="M1827 940l0 -26 9 0c2,0 4,0 5,0 2,0 3,1 4,2 1,1 2,3 3,4 1,2 1,4 1,6 0,2 0,4 -1,5 0,2 -1,3 -2,4 -1,1 -2,2 -2,2 -1,1 -2,1 -3,1 -1,0 -3,0 -4,0l-9 0zm3 -3l6 0c2,0 3,0 4,0 1,0 2,-1 2,-1 1,-1 1,-2 2,-3 0,-1 1,-3 1,-5 0,-3 0,-5 -1,-6 -1,-1 -2,-2 -3,-3 -1,0 -2,-1 -4,-1l-5 0 0 20z"/>
  <path fill="#FEFEFE" fill-rule="nonzero" d="M637 545l0 -26 3 0 0 23 13 0 0 3 -16 0z"/>
  <path id="1" fill="none" fill-rule="nonzero" stroke="#FEFEFE" stroke-width="3.95246" d="M637 545l0 -26 3 0 0 23 13 0 0 3 -16 0z"/>
  <path fill="#FEFEFE" fill-rule="nonzero" d="M623 808l0 -26 4 0 14 21 0 -21 3 0 0 26 -4 0 -14 -21 0 21 -3 0z"/>
  <path id="1" fill="none" fill-rule="nonzero" stroke="#FEFEFE" stroke-width="3.95246" d="M623 808l0 -26 4 0 14 21 0 -21 3 0 0 26 -4 0 -14 -21 0 21 -3 0z"/>
  <path fill="#FEFEFE" fill-rule="nonzero" d="M676 708l0 -105 76 0 0 12 -62 0 0 32 58 0 0 12 -58 0 0 36 64 0 0 12 -78 0z"/>
  <path id="1" fill="#FEFEFE" fill-rule="nonzero" d="M768 708l40 -54 -36 -50 17 0 19 27c4,6 7,10 8,13 2,-4 5,-8 8,-12l21 -28 15 0 -36 50 39 55 -17 0 -26 -37c-2,-2 -3,-4 -4,-6 -2,4 -4,6 -5,7l-27 36 -17 0z"/>
  <path id="2" fill="#FEFEFE" fill-rule="nonzero" d="M908 708l0 -93 -35 0 0 -12 83 0 0 12 -35 0 0 93 -14 0z"/>
  <path id="3" fill="#FEFEFE" fill-rule="nonzero" d="M976 708l0 -105 76 0 0 12 -62 0 0 32 58 0 0 12 -58 0 0 36 64 0 0 12 -78 0z"/>
  <path id="4" fill="#FEFEFE" fill-rule="nonzero" d="M1079 708l0 -105 14 0 55 82 0 -82 13 0 0 105 -14 0 -55 -82 0 82 -13 0z"/>
  <path id="5" fill="#FEFEFE" fill-rule="nonzero" d="M1190 708l0 -105 36 0c8,0 14,0 19,1 6,1 11,4 15,8 6,5 10,11 12,18 3,7 4,16 4,25 0,8 -1,15 -3,21 -2,6 -4,11 -7,15 -3,4 -6,7 -10,9 -3,2 -8,4 -12,5 -5,1 -11,2 -17,2l-38 0zm14 -12l22 0c7,0 12,-1 16,-2 4,-1 7,-3 9,-5 3,-3 6,-8 8,-13 2,-6 3,-12 3,-20 0,-11 -2,-19 -5,-25 -4,-6 -8,-10 -13,-12 -4,-1 -10,-2 -18,-2l-22 0 0 80z"/>
  <path id="6" fill="#FEFEFE" fill-rule="nonzero" d="M1301 708l0 -105 76 0 0 12 -62 0 0 32 58 0 0 12 -58 0 0 36 64 0 0 12 -78 0z"/>
  <path id="7" fill="#FEFEFE" fill-rule="nonzero" d="M1403 708l0 -105 36 0c8,0 14,0 19,1 6,1 11,4 15,8 6,5 10,11 12,18 3,7 4,16 4,25 0,8 -1,15 -3,21 -2,6 -4,11 -7,15 -3,4 -6,7 -10,9 -3,2 -8,4 -12,5 -5,1 -11,2 -17,2l-38 0zm14 -12l22 0c7,0 12,-1 16,-2 4,-1 7,-3 9,-5 3,-3 6,-8 8,-13 2,-6 3,-12 3,-20 0,-11 -2,-19 -5,-25 -4,-6 -8,-10 -13,-12 -4,-1 -10,-2 -18,-2l-22 0 0 80z"/>
 </g>
</svg>
